<svg id="ep4g8dt5zmds1" xmlns="http://www.w3.org/2000/svg" xmlns:xlink="http://www.w3.org/1999/xlink" viewBox="-350 50 5000 1527" shape-rendering="geometricPrecision" text-rendering="geometricPrecision"><style><![CDATA[#ep4g8dt5zmds5_to {animation: ep4g8dt5zmds5_to__to 10000ms linear infinite normal forwards}@keyframes ep4g8dt5zmds5_to__to { 0% {transform: translate(2986.100000px,641.900000px)} 10% {transform: translate(2986.100000px,641.900000px);animation-timing-function: cubic-bezier(0.550000,0.085000,0.680000,0.530000)} 31% {transform: translate(-181.374592px,-56.200000px)} 100% {transform: translate(-181.374592px,-56.200000px)} }#ep4g8dt5zmds196_to {animation: ep4g8dt5zmds196_to__to 10000ms linear infinite normal forwards}@keyframes ep4g8dt5zmds196_to__to { 0% {transform: translate(3490.950098px,1262.666667px)} 2% {transform: translate(3490.950098px,1262.666667px)} 22% {transform: translate(1523.556582px,1256.716667px)} 100% {transform: translate(1523.556582px,1256.716667px)} }#ep4g8dt5zmds196_ts {animation: ep4g8dt5zmds196_ts__ts 10000ms linear infinite normal forwards}@keyframes ep4g8dt5zmds196_ts__ts { 0% {transform: scale(1,1)} 2% {transform: scale(1,1);animation-timing-function: cubic-bezier(0.550000,0.085000,0.680000,0.530000)} 22% {transform: scale(0.800000,0.800000)} 100% {transform: scale(0.800000,0.800000)} }#ep4g8dt5zmds230_tr {animation: ep4g8dt5zmds230_tr__tr 10000ms linear infinite normal forwards}@keyframes ep4g8dt5zmds230_tr__tr { 0% {transform: translate(178.800000px,794.300000px) rotate(1800deg)} 100% {transform: translate(178.800000px,794.300000px) rotate(0deg)} }#ep4g8dt5zmds235_tr {animation: ep4g8dt5zmds235_tr__tr 10000ms linear infinite normal forwards}@keyframes ep4g8dt5zmds235_tr__tr { 0% {transform: translate(329.900000px,1108.900000px) rotate(1800deg)} 100% {transform: translate(329.900000px,1108.900000px) rotate(0deg)} }#ep4g8dt5zmds240_tr {animation: ep4g8dt5zmds240_tr__tr 10000ms linear infinite normal forwards}@keyframes ep4g8dt5zmds240_tr__tr { 0% {transform: translate(530.300000px,1396.100965px) rotate(1800deg)} 100% {transform: translate(530.300000px,1396.100965px) rotate(0deg)} }]]></style><path id="ep4g8dt5zmds2" d="M4740.966090,1585.362574C4744.839793,1569.562574,4722.016692,1516.839493,4722.016692,1515.123061C4534.361270,1280.974204,4273.282776,1023.546816,3721.187777,1023.546816C3169.092777,1023.546816,2845.814457,1322.817510,2632.402409,1542.260884C2632.402409,1558.460884,2634.431492,1574.460884,2638.120733,1590.260884L4740.966090,1585.362574Z" transform="matrix(1 0 0 0.99659006108711 -1921.10876931999724 -103.18072086499660)" fill="rgb(97,149,62)" stroke="none" stroke-width="1"/><g id="ep4g8dt5zmds3"><g id="ep4g8dt5zmds4"><g id="ep4g8dt5zmds5_to" transform="translate(2986.100000,641.900000)"><g id="ep4g8dt5zmds5" transform="translate(-1886.500000,-529.800000)"><line id="ep4g8dt5zmds6" x1="1818.900000" y1="466.900000" x2="1796.100000" y2="459.100000" fill="none" stroke="rgb(138,148,156)" stroke-width="1.887500" stroke-linecap="round" stroke-miterlimit="10"/><rect id="ep4g8dt5zmds7" width="9.800000" height="27.900000" rx="0" ry="0" transform="matrix(0.32330000000000 -0.94630000000000 0.94630000000000 0.32330000000000 1991.34253999999919 500.69221999999991)" fill="rgb(128,128,128)" stroke="none" stroke-width="1"/><rect id="ep4g8dt5zmds8" width="9.800000" height="27.900000" rx="0" ry="0" transform="matrix(0.32330000000000 -0.94630000000000 0.94630000000000 0.32330000000000 1972.53499999999894 555.70415999999977)" fill="rgb(128,128,128)" stroke="none" stroke-width="1"/><path id="ep4g8dt5zmds9" d="M1998.300000,539.800000L1847.500000,488.300000L1814.600000,469.400000C1811.400000,467.500000,1813.100000,462.600000,1816.800000,463.100000L1854.400000,468.300000L2005.200000,519.800000L1998.300000,539.800000Z" fill="rgb(208,211,214)" stroke="none" stroke-width="1"/><polygon id="ep4g8dt5zmds10" points="1990,449.600000 1958.200000,438.700000 1893.300000,481.600000 1959.100000,504" fill="rgb(173,180,186)" stroke="none" stroke-width="1"/><polygon id="ep4g8dt5zmds11" points="1943.400000,586 1911.600000,575.200000 1886.500000,501.600000 1952.200000,524" fill="rgb(173,180,186)" stroke="none" stroke-width="1"/><polygon id="ep4g8dt5zmds12" points="2016.800000,491.400000 2001,486 1968.700000,507.400000 2001.400000,518.500000" fill="rgb(173,180,186)" stroke="none" stroke-width="1"/><polygon id="ep4g8dt5zmds13" points="1990.200000,569.300000 1974.400000,563.900000 1961.900000,527.300000 1994.600000,538.500000" fill="rgb(173,180,186)" stroke="none" stroke-width="1"/><path id="ep4g8dt5zmds14" d="M1873.300000,493.500000L1846.100000,482.200000C1843.700000,481.400000,1842.500000,478.800000,1843.300000,476.400000L1844,474.300000C1844.800000,471.900000,1847.400000,470.700000,1849.800000,471.500000L1878.300000,479.200000C1880.700000,480,1881.900000,482.600000,1881.100000,485L1879.200000,490.700000C1878.200000,493,1875.700000,494.300000,1873.300000,493.500000Z" fill="rgb(138,148,156)" stroke="none" stroke-width="1"/><g id="ep4g8dt5zmds15"><rect id="ep4g8dt5zmds16" width="26.400000" height="6.600000" rx="0" ry="0" transform="matrix(0.32330000000000 -0.94630000000000 0.94630000000000 0.32330000000000 1941.20025999999916 483.59401999999955)" fill="rgb(255,255,255)" stroke="none" stroke-width="1"/><circle id="ep4g8dt5zmds17" r="8.800000" transform="matrix(1 0 0 1 1948.70000000000005 472.19999999999999)" fill="rgb(138,148,156)" stroke="none" stroke-width="1"/><g id="ep4g8dt5zmds18"><line id="ep4g8dt5zmds19" x1="1941.300000" y1="483.600000" x2="1949.800000" y2="458.600000" fill="none" stroke="rgb(138,148,156)" stroke-width="1.101000" stroke-miterlimit="10"/><line id="ep4g8dt5zmds20" x1="1944.500000" y1="484.700000" x2="1953.100000" y2="459.700000" fill="none" stroke="rgb(138,148,156)" stroke-width="1.101000" stroke-miterlimit="10"/><line id="ep4g8dt5zmds21" x1="1947.800000" y1="485.800000" x2="1956.300000" y2="460.800000" fill="none" stroke="rgb(138,148,156)" stroke-width="1.101000" stroke-miterlimit="10"/></g><polygon id="ep4g8dt5zmds22" points="1942.400000,470 1947.600000,470.100000 1949.300000,465.200000 1950.800000,470.200000 1956,470.200000 1951.800000,473.200000 1953.300000,478.200000 1949.100000,475.100000 1944.900000,478 1946.600000,473.100000" fill="rgb(255,255,255)" stroke="none" stroke-width="1"/></g><rect id="ep4g8dt5zmds23" width="2.300000" height="61.900000" rx="0" ry="0" transform="matrix(0.32330000000000 -0.94630000000000 0.94630000000000 0.32330000000000 1958.59436999999889 515.86280999999985)" fill="rgb(138,148,156)" stroke="none" stroke-width="1"/><polygon id="ep4g8dt5zmds24" points="2005.300000,539 1998.300000,539.800000 2005.100000,519.800000 2010.200000,524.700000" fill="rgb(128,128,128)" stroke="none" stroke-width="1"/></g></g><rect id="ep4g8dt5zmds25" width="162.600000" height="104.500000" rx="0" ry="0" transform="matrix(1 0 0 1 2592.69999999999982 706.89999999999998)" fill="rgb(0,117,168)" stroke="none" stroke-width="1"/><rect id="ep4g8dt5zmds26" width="27.900000" height="76.700000" rx="0" ry="0" transform="matrix(1 0 0 1 2712.40000000000009 720.89999999999998)" fill="rgb(223,235,245)" stroke="none" stroke-width="1"/><rect id="ep4g8dt5zmds27" width="27.900000" height="76.700000" rx="0" ry="0" transform="matrix(1 0 0 1 2677.50000000000000 720.89999999999998)" fill="rgb(223,235,245)" stroke="none" stroke-width="1"/><rect id="ep4g8dt5zmds28" width="27.900000" height="76.700000" rx="0" ry="0" transform="matrix(1 0 0 1 2642.69999999999982 720.89999999999998)" fill="rgb(223,235,245)" stroke="none" stroke-width="1"/><rect id="ep4g8dt5zmds29" width="27.900000" height="76.700000" rx="0" ry="0" transform="matrix(1 0 0 1 2607.80000000000018 720.89999999999998)" fill="rgb(223,235,245)" stroke="none" stroke-width="1"/><rect id="ep4g8dt5zmds30" width="176.600000" height="9.300000" rx="0" ry="0" transform="matrix(1 0 0 1 2585.80000000000018 697.60000000000002)" fill="rgb(52,72,93)" stroke="none" stroke-width="1"/><g id="ep4g8dt5zmds31"><rect id="ep4g8dt5zmds32" width="158" height="53.400000" rx="0" ry="0" transform="matrix(1 0 0 1 2596.19999999999982 641.89999999999998)" fill="rgb(255,255,255)" stroke="none" stroke-width="1"/><path id="ep4g8dt5zmds33" d="M2598.500000,644.200000L2598.500000,693L2751.800000,693L2751.800000,644.200000L2598.500000,644.200000M2593.900000,639.600000L2756.500000,639.600000L2756.500000,697.700000L2593.900000,697.700000L2593.900000,639.600000L2593.900000,639.600000Z" fill="rgb(0,117,168)" stroke="none" stroke-width="1"/></g><g id="ep4g8dt5zmds34"><polygon id="ep4g8dt5zmds35" points="2740.200000,720.900000 2740.200000,730.800000 2713.900000,720.900000" fill="rgb(255,255,255)" stroke="none" stroke-width="1"/><polygon id="ep4g8dt5zmds36" points="2712.400000,797.500000 2712.400000,788.200000 2737.100000,797.500000" fill="rgb(255,255,255)" stroke="none" stroke-width="1"/></g><g id="ep4g8dt5zmds37"><polygon id="ep4g8dt5zmds38" points="2705.400000,720.900000 2705.400000,730.800000 2679.100000,720.900000" fill="rgb(255,255,255)" stroke="none" stroke-width="1"/><polygon id="ep4g8dt5zmds39" points="2677.500000,797.500000 2677.500000,788.200000 2702.300000,797.500000" fill="rgb(255,255,255)" stroke="none" stroke-width="1"/></g><g id="ep4g8dt5zmds40"><polygon id="ep4g8dt5zmds41" points="2635.700000,720.900000 2635.700000,730.800000 2609.400000,720.900000" fill="rgb(255,255,255)" stroke="none" stroke-width="1"/><polygon id="ep4g8dt5zmds42" points="2607.800000,797.500000 2607.800000,788.200000 2632.600000,797.500000" fill="rgb(255,255,255)" stroke="none" stroke-width="1"/></g><g id="ep4g8dt5zmds43"><polygon id="ep4g8dt5zmds44" points="2670.500000,720.900000 2670.500000,730.800000 2644.200000,720.900000" fill="rgb(255,255,255)" stroke="none" stroke-width="1"/><g id="ep4g8dt5zmds45"><polygon id="ep4g8dt5zmds46" points="2740.200000,776.600000 2712.400000,766.200000 2712.400000,728.400000 2740.200000,738.900000" fill="rgb(255,255,255)" stroke="none" stroke-width="1"/><polygon id="ep4g8dt5zmds47" points="2705.400000,776.600000 2677.500000,766.200000 2677.500000,728.400000 2705.400000,738.900000" fill="rgb(255,255,255)" stroke="none" stroke-width="1"/><polygon id="ep4g8dt5zmds48" points="2635.700000,738.900000 2635.700000,776.600000 2607.800000,766.200000 2607.800000,728.400000" fill="rgb(255,255,255)" stroke="none" stroke-width="1"/><polygon id="ep4g8dt5zmds49" points="2670.500000,776.600000 2642.700000,766.200000 2642.700000,728.400000 2670.500000,738.900000" fill="rgb(255,255,255)" stroke="none" stroke-width="1"/></g><polygon id="ep4g8dt5zmds50" points="2642.700000,797.500000 2642.700000,788.200000 2667.400000,797.500000" fill="rgb(255,255,255)" stroke="none" stroke-width="1"/></g><rect id="ep4g8dt5zmds51" width="176.600000" height="9.300000" rx="0" ry="0" transform="matrix(1 0 0 1 2585.80000000000018 754.60000000000002)" fill="rgb(52,72,93)" stroke="none" stroke-width="1"/></g><g id="ep4g8dt5zmds52"><g id="ep4g8dt5zmds53"><ellipse id="ep4g8dt5zmds54" rx="53.600000" ry="53.600000" transform="matrix(0.91900000000000 -0.39420000000000 0.39420000000000 0.91900000000000 2349.24322000000029 815.60133999999982)" fill="rgb(139,197,63)" stroke="none" stroke-width="1"/></g><g id="ep4g8dt5zmds55"><path id="ep4g8dt5zmds56" d="M2403,815.700000C2403,786.100000,2379,762,2349.400000,762L2349.400000,869.300000C2379,869.300000,2403,845.300000,2403,815.700000Z" fill="rgb(108,168,57)" stroke="none" stroke-width="1"/></g><g id="ep4g8dt5zmds57"><g id="ep4g8dt5zmds58"><path id="ep4g8dt5zmds59" d="M2349.400000,900.400000C2348.400000,900.400000,2347.600000,899.600000,2347.600000,898.600000L2347.600000,823.400000C2347.600000,822.400000,2348.400000,821.600000,2349.400000,821.600000C2350.400000,821.600000,2351.200000,822.400000,2351.200000,823.400000L2351.200000,898.600000C2351.200000,899.600000,2350.400000,900.400000,2349.400000,900.400000L2349.400000,900.400000Z" fill="rgb(49,49,49)" stroke="none" stroke-width="1"/></g><g id="ep4g8dt5zmds60"><path id="ep4g8dt5zmds61" d="M2349.400000,852.600000C2348.900000,852.600000,2348.500000,852.400000,2348.100000,852.100000C2347.400000,851.400000,2347.400000,850.200000,2348.100000,849.500000L2359.300000,838.300000C2360,837.600000,2361.200000,837.600000,2361.900000,838.300000C2362.600000,839,2362.600000,840.200000,2361.900000,840.900000L2350.700000,852.100000C2350.300000,852.500000,2349.800000,852.600000,2349.400000,852.600000L2349.400000,852.600000Z" fill="rgb(49,49,49)" stroke="none" stroke-width="1"/></g><g id="ep4g8dt5zmds62"><path id="ep4g8dt5zmds63" d="M2349.400000,842.900000C2348.900000,842.900000,2348.500000,842.700000,2348.100000,842.400000L2333.300000,827.600000C2332.600000,826.900000,2332.600000,825.700000,2333.300000,825C2334,824.300000,2335.200000,824.300000,2335.900000,825L2350.700000,839.800000C2351.400000,840.500000,2351.400000,841.700000,2350.700000,842.400000C2350.300000,842.700000,2349.800000,842.900000,2349.400000,842.900000L2349.400000,842.900000Z" fill="rgb(49,49,49)" stroke="none" stroke-width="1"/></g></g></g><g id="ep4g8dt5zmds64"><g id="ep4g8dt5zmds65"><rect id="ep4g8dt5zmds66" width="209.100000" height="348.400000" rx="0" ry="0" transform="matrix(1 0 0 1 3070.09999999999991 433)" fill="rgb(139,149,157)" stroke="none" stroke-width="1"/><rect id="ep4g8dt5zmds67" width="23.200000" height="348.400000" rx="0" ry="0" transform="matrix(1 0 0 1 3070.09999999999991 433)" fill="rgb(208,212,215)" stroke="none" stroke-width="1"/><rect id="ep4g8dt5zmds68" width="23.200000" height="348.400000" rx="0" ry="0" transform="matrix(1 0 0 1 3116.59999999999991 433)" fill="rgb(208,212,215)" stroke="none" stroke-width="1"/><rect id="ep4g8dt5zmds69" width="23.200000" height="348.400000" rx="0" ry="0" transform="matrix(1 0 0 1 3163 433)" fill="rgb(208,212,215)" stroke="none" stroke-width="1"/><rect id="ep4g8dt5zmds70" width="23.200000" height="348.400000" rx="0" ry="0" transform="matrix(1 0 0 1 3256 433)" fill="rgb(208,212,215)" stroke="none" stroke-width="1"/><rect id="ep4g8dt5zmds71" width="23.200000" height="348.400000" rx="0" ry="0" transform="matrix(1 0 0 1 3209.50000000000000 433)" fill="rgb(208,212,215)" stroke="none" stroke-width="1"/><rect id="ep4g8dt5zmds72" width="220.700000" height="7" rx="0" ry="0" transform="matrix(1 0 0 1 3064.30000000000018 531.39999999999998)" fill="rgb(242,245,245)" stroke="none" stroke-width="1"/><rect id="ep4g8dt5zmds73" width="220.700000" height="7" rx="0" ry="0" transform="matrix(1 0 0 1 3064.30000000000018 465.80000000000001)" fill="rgb(242,245,245)" stroke="none" stroke-width="1"/><rect id="ep4g8dt5zmds74" width="220.700000" height="7" rx="0" ry="0" transform="matrix(1 0 0 1 3064.30000000000018 695.29999999999995)" fill="rgb(242,245,245)" stroke="none" stroke-width="1"/><rect id="ep4g8dt5zmds75" width="220.700000" height="7" rx="0" ry="0" transform="matrix(1 0 0 1 3064.30000000000018 629.70000000000005)" fill="rgb(242,245,245)" stroke="none" stroke-width="1"/><rect id="ep4g8dt5zmds76" width="220.700000" height="7" rx="0" ry="0" transform="matrix(1 0 0 1 3064.30000000000018 564.10000000000002)" fill="rgb(242,245,245)" stroke="none" stroke-width="1"/><rect id="ep4g8dt5zmds77" width="220.700000" height="7" rx="0" ry="0" transform="matrix(1 0 0 1 3064.30000000000018 498.60000000000002)" fill="rgb(242,245,245)" stroke="none" stroke-width="1"/><rect id="ep4g8dt5zmds78" width="220.700000" height="7" rx="0" ry="0" transform="matrix(1 0 0 1 3064.30000000000018 596.89999999999998)" fill="rgb(242,245,245)" stroke="none" stroke-width="1"/><rect id="ep4g8dt5zmds79" width="220.700000" height="7" rx="0" ry="0" transform="matrix(1 0 0 1 3064.30000000000018 433)" fill="rgb(61,61,61)" stroke="none" stroke-width="1"/><rect id="ep4g8dt5zmds80" width="220.700000" height="7" rx="0" ry="0" transform="matrix(1 0 0 1 3064.30000000000018 728)" fill="rgb(242,245,245)" stroke="none" stroke-width="1"/><rect id="ep4g8dt5zmds81" width="220.700000" height="7" rx="0" ry="0" transform="matrix(1 0 0 1 3064.30000000000018 662.50000000000000)" fill="rgb(242,245,245)" stroke="none" stroke-width="1"/></g><g id="ep4g8dt5zmds82"><rect id="ep4g8dt5zmds83" width="69.700000" height="9.300000" rx="0" ry="0" transform="matrix(1 0 0 1 2764.59999999999991 454.30000000000001)" fill="rgb(139,149,157)" stroke="none" stroke-width="1"/><rect id="ep4g8dt5zmds84" width="92.900000" height="278.700000" rx="0" ry="0" transform="matrix(1 0 0 1 2755.30000000000018 502.80000000000001)" fill="rgb(139,149,157)" stroke="none" stroke-width="1"/><rect id="ep4g8dt5zmds85" width="18.600000" height="18.600000" rx="0" ry="0" transform="matrix(1 0 0 1 2773.90000000000009 521.39999999999998)" fill="rgb(255,255,255)" stroke="none" stroke-width="1"/><rect id="ep4g8dt5zmds86" width="18.600000" height="18.600000" rx="0" ry="0" transform="matrix(1 0 0 1 2811 521.39999999999998)" fill="rgb(255,255,255)" stroke="none" stroke-width="1"/><rect id="ep4g8dt5zmds87" width="18.600000" height="18.600000" rx="0" ry="0" transform="matrix(1 0 0 1 2773.90000000000009 563.79999999999995)" fill="rgb(255,255,255)" stroke="none" stroke-width="1"/><rect id="ep4g8dt5zmds88" width="18.600000" height="18.600000" rx="0" ry="0" transform="matrix(1 0 0 1 2811 563.79999999999995)" fill="rgb(255,255,255)" stroke="none" stroke-width="1"/><rect id="ep4g8dt5zmds89" width="18.600000" height="18.600000" rx="0" ry="0" transform="matrix(1 0 0 1 2773.90000000000009 608.89999999999998)" fill="rgb(255,255,255)" stroke="none" stroke-width="1"/><rect id="ep4g8dt5zmds90" width="18.600000" height="18.600000" rx="0" ry="0" transform="matrix(1 0 0 1 2811 608.89999999999998)" fill="rgb(255,255,255)" stroke="none" stroke-width="1"/><rect id="ep4g8dt5zmds91" width="18.600000" height="18.600000" rx="0" ry="0" transform="matrix(1 0 0 1 2773.90000000000009 654)" fill="rgb(255,255,255)" stroke="none" stroke-width="1"/><rect id="ep4g8dt5zmds92" width="18.600000" height="18.600000" rx="0" ry="0" transform="matrix(1 0 0 1 2811 654)" fill="rgb(255,255,255)" stroke="none" stroke-width="1"/><rect id="ep4g8dt5zmds93" width="18.600000" height="18.600000" rx="0" ry="0" transform="matrix(1 0 0 1 2773.90000000000009 699.20000000000005)" fill="rgb(255,255,255)" stroke="none" stroke-width="1"/><rect id="ep4g8dt5zmds94" width="18.600000" height="18.600000" rx="0" ry="0" transform="matrix(1 0 0 1 2811 699.20000000000005)" fill="rgb(255,255,255)" stroke="none" stroke-width="1"/><rect id="ep4g8dt5zmds95" width="18.600000" height="37.200000" rx="0" ry="0" transform="matrix(1 0 0 1 2773.90000000000009 744.29999999999995)" fill="rgb(255,255,255)" stroke="none" stroke-width="1"/><rect id="ep4g8dt5zmds96" width="18.600000" height="37.200000" rx="0" ry="0" transform="matrix(1 0 0 1 2811 744.29999999999995)" fill="rgb(255,255,255)" stroke="none" stroke-width="1"/></g><g id="ep4g8dt5zmds97"><polygon id="ep4g8dt5zmds98" points="2934.200000,781.500000 2843.600000,781.500000 2843.600000,409.800000 2934.200000,372.600000" fill="rgb(0,117,168)" stroke="none" stroke-width="1"/><polygon id="ep4g8dt5zmds99" points="3003.900000,781.500000 2931.900000,781.500000 2931.900000,409.800000 3003.900000,465.500000" fill="rgb(0,117,168)" stroke="none" stroke-width="1"/><rect id="ep4g8dt5zmds100" width="53.400000" height="18.600000" rx="0" ry="0" transform="matrix(1 0 0 1 2862.19999999999982 521.29999999999995)" fill="rgb(229,243,244)" stroke="none" stroke-width="1"/><rect id="ep4g8dt5zmds101" width="53.400000" height="18.600000" rx="0" ry="0" transform="matrix(1 0 0 1 2934.19999999999982 521.29999999999995)" fill="rgb(191,225,228)" stroke="none" stroke-width="1"/><rect id="ep4g8dt5zmds102" width="125.400000" height="18.600000" rx="0" ry="0" transform="matrix(1 0 0 1 2862.19999999999982 707.10000000000002)" fill="rgb(191,225,228)" stroke="none" stroke-width="1"/><rect id="ep4g8dt5zmds103" width="53.400000" height="18.600000" rx="0" ry="0" transform="matrix(1 0 0 1 2862.19999999999982 670)" fill="rgb(229,243,244)" stroke="none" stroke-width="1"/><rect id="ep4g8dt5zmds104" width="53.400000" height="18.600000" rx="0" ry="0" transform="matrix(1 0 0 1 2934.19999999999982 670)" fill="rgb(191,225,228)" stroke="none" stroke-width="1"/><rect id="ep4g8dt5zmds105" width="125.400000" height="18.600000" rx="0" ry="0" transform="matrix(1 0 0 1 2862.19999999999982 632.79999999999995)" fill="rgb(191,225,228)" stroke="none" stroke-width="1"/><rect id="ep4g8dt5zmds106" width="53.400000" height="18.600000" rx="0" ry="0" transform="matrix(1 0 0 1 2862.19999999999982 595.60000000000002)" fill="rgb(229,243,244)" stroke="none" stroke-width="1"/><rect id="ep4g8dt5zmds107" width="53.400000" height="18.600000" rx="0" ry="0" transform="matrix(1 0 0 1 2934.19999999999982 595.60000000000002)" fill="rgb(191,225,228)" stroke="none" stroke-width="1"/><rect id="ep4g8dt5zmds108" width="125.400000" height="18.600000" rx="0" ry="0" transform="matrix(1 0 0 1 2862.19999999999982 558.50000000000000)" fill="rgb(191,225,228)" stroke="none" stroke-width="1"/><rect id="ep4g8dt5zmds109" width="125.400000" height="18.600000" rx="0" ry="0" transform="matrix(1 0 0 1 2862.19999999999982 484.10000000000002)" fill="rgb(191,225,228)" stroke="none" stroke-width="1"/><rect id="ep4g8dt5zmds110" width="53.400000" height="18.600000" rx="0" ry="0" transform="matrix(1 0 0 1 2862.19999999999982 447)" fill="rgb(229,243,244)" stroke="none" stroke-width="1"/><rect id="ep4g8dt5zmds111" width="18.600000" height="18.600000" rx="0" ry="0" transform="matrix(1 0 0 1 2934.19999999999982 447)" fill="rgb(191,225,228)" stroke="none" stroke-width="1"/><rect id="ep4g8dt5zmds112" width="18.600000" height="18.600000" rx="0" ry="0" transform="matrix(1 0 0 1 2897 409.80000000000001)" fill="rgb(191,225,228)" stroke="none" stroke-width="1"/><rect id="ep4g8dt5zmds113" width="53.400000" height="37.200000" rx="0" ry="0" transform="matrix(1 0 0 1 2862.19999999999982 744.29999999999995)" fill="rgb(229,243,244)" stroke="none" stroke-width="1"/><rect id="ep4g8dt5zmds114" width="53.400000" height="37.200000" rx="0" ry="0" transform="matrix(1 0 0 1 2934.19999999999982 744.29999999999995)" fill="rgb(191,225,228)" stroke="none" stroke-width="1"/></g><g id="ep4g8dt5zmds115"><rect id="ep4g8dt5zmds116" width="185.800000" height="139.300000" rx="0" ry="0" transform="matrix(1 0 0 1 2941.19999999999982 642.10000000000002)" fill="rgb(225,75,49)" stroke="none" stroke-width="1"/><rect id="ep4g8dt5zmds117" width="185.800000" height="74.300000" rx="0" ry="0" transform="matrix(1 0 0 1 2941.19999999999982 642.10000000000002)" fill="rgb(240,83,84)" stroke="none" stroke-width="1"/><g id="ep4g8dt5zmds118"><rect id="ep4g8dt5zmds119" width="144" height="41.800000" rx="0" ry="0" transform="matrix(1 0 0 1 2962.09999999999991 658.29999999999995)" fill="rgb(255,255,255)" stroke="none" stroke-width="1"/><path id="ep4g8dt5zmds120" d="M3103.800000,660.700000L2964.400000,660.700000L2964.400000,697.900000L3103.800000,697.900000L3103.800000,660.700000M3108.400000,656L3108.400000,702.500000L2959.700000,702.500000L2959.700000,656L3108.400000,656L3108.400000,656Z" fill="rgb(225,75,49)" stroke="none" stroke-width="1"/></g><g id="ep4g8dt5zmds121"><g id="ep4g8dt5zmds122"><rect id="ep4g8dt5zmds123" width="27.900000" height="55.800000" rx="0" ry="0" transform="matrix(1 0 0 1 2959.80000000000018 725.70000000000005)" fill="rgb(223,235,245)" stroke="none" stroke-width="1"/><rect id="ep4g8dt5zmds124" width="27.900000" height="55.800000" rx="0" ry="0" transform="matrix(1 0 0 1 2992.30000000000018 725.70000000000005)" fill="rgb(223,235,245)" stroke="none" stroke-width="1"/></g><g id="ep4g8dt5zmds125"><rect id="ep4g8dt5zmds126" width="27.900000" height="55.800000" rx="0" ry="0" transform="matrix(1 0 0 1 3048.09999999999991 725.70000000000005)" fill="rgb(223,235,245)" stroke="none" stroke-width="1"/><rect id="ep4g8dt5zmds127" width="27.900000" height="55.800000" rx="0" ry="0" transform="matrix(1 0 0 1 3080.59999999999991 725.70000000000005)" fill="rgb(223,235,245)" stroke="none" stroke-width="1"/></g><polygon id="ep4g8dt5zmds128" points="3020.200000,733.300000 2992.300000,743.700000 2992.300000,758.200000 3020.200000,747.800000" fill="rgb(255,255,255)" stroke="none" stroke-width="1"/><polygon id="ep4g8dt5zmds129" points="3020.200000,781.500000 3020.200000,772.200000 2995.400000,781.500000" fill="rgb(255,255,255)" stroke="none" stroke-width="1"/><polygon id="ep4g8dt5zmds130" points="3108.400000,733.300000 3080.600000,743.700000 3080.600000,758.200000 3108.400000,747.800000" fill="rgb(255,255,255)" stroke="none" stroke-width="1"/><polygon id="ep4g8dt5zmds131" points="3108.400000,781.500000 3108.400000,772.200000 3083.700000,781.500000" fill="rgb(255,255,255)" stroke="none" stroke-width="1"/><polygon id="ep4g8dt5zmds132" points="3048.100000,725.700000 3048.100000,735.600000 3074.400000,725.700000" fill="rgb(255,255,255)" stroke="none" stroke-width="1"/><polygon id="ep4g8dt5zmds133" points="2992.300000,725.700000 2992.300000,735.600000 3018.600000,725.700000" fill="rgb(255,255,255)" stroke="none" stroke-width="1"/><polygon id="ep4g8dt5zmds134" points="2959.800000,725.700000 2959.800000,735.600000 2986.100000,725.700000" fill="rgb(255,255,255)" stroke="none" stroke-width="1"/><polygon id="ep4g8dt5zmds135" points="3080.600000,725.700000 3080.600000,735.600000 3106.900000,725.700000" fill="rgb(255,255,255)" stroke="none" stroke-width="1"/><polygon id="ep4g8dt5zmds136" points="3075.900000,733.300000 3048.100000,743.700000 3048.100000,758.200000 3075.900000,747.800000" fill="rgb(255,255,255)" stroke="none" stroke-width="1"/><polygon id="ep4g8dt5zmds137" points="3075.900000,781.500000 3075.900000,772.200000 3051.100000,781.500000" fill="rgb(255,255,255)" stroke="none" stroke-width="1"/><polygon id="ep4g8dt5zmds138" points="2987.600000,733.300000 2959.800000,743.700000 2959.800000,758.200000 2987.600000,747.800000" fill="rgb(255,255,255)" stroke="none" stroke-width="1"/><polygon id="ep4g8dt5zmds139" points="2987.600000,781.500000 2987.600000,772.200000 2962.900000,781.500000" fill="rgb(255,255,255)" stroke="none" stroke-width="1"/></g></g><g id="ep4g8dt5zmds140"><g id="ep4g8dt5zmds141"><g id="ep4g8dt5zmds142"><rect id="ep4g8dt5zmds143" width="41.700000" height="41" rx="0" ry="0" transform="matrix(1 0 0 1 3132.69999999999982 351)" fill="rgb(238,187,23)" stroke="none" stroke-width="1"/><path id="ep4g8dt5zmds144" d="M3155.700000,357.200000L3155.700000,385.900000L3159.900000,385.900000L3159.900000,357.200000L3155.700000,357.200000ZM3143.100000,357.200000L3143.100000,385.900000L3138.900000,385.900000L3138.900000,357.200000L3143.100000,357.200000ZM3168.200000,357.200000L3168.200000,385.900000L3164,385.900000L3164,357.200000L3168.200000,357.200000ZM3151.500000,357.200000L3151.500000,385.900000L3147.300000,385.900000L3147.300000,357.200000L3151.500000,357.200000Z" fill="rgb(215,168,20)" stroke="none" stroke-width="1"/></g><g id="ep4g8dt5zmds145"><rect id="ep4g8dt5zmds146" width="41.700000" height="41" rx="0" ry="0" transform="matrix(1 0 0 1 3195.30000000000018 392)" fill="rgb(238,187,23)" stroke="none" stroke-width="1"/><path id="ep4g8dt5zmds147" d="M3218.300000,398.200000L3218.300000,426.900000L3222.500000,426.900000L3222.500000,398.200000L3218.300000,398.200000ZM3205.700000,398.200000L3205.700000,426.900000L3201.500000,426.900000L3201.500000,398.200000L3205.700000,398.200000ZM3230.800000,398.200000L3230.800000,426.900000L3226.600000,426.900000L3226.600000,398.200000L3230.800000,398.200000ZM3214.100000,398.200000L3214.100000,426.900000L3209.900000,426.900000L3209.900000,398.200000L3214.100000,398.200000Z" fill="rgb(215,168,20)" stroke="none" stroke-width="1"/></g><g id="ep4g8dt5zmds148"><rect id="ep4g8dt5zmds149" width="41.700000" height="41" rx="0" ry="0" transform="matrix(1 0 0 1 3070.09999999999991 392)" fill="rgb(238,187,23)" stroke="none" stroke-width="1"/><path id="ep4g8dt5zmds150" d="M3093.100000,398.200000L3093.100000,426.900000L3097.300000,426.900000L3097.300000,398.200000L3093.100000,398.200000ZM3080.600000,398.200000L3080.600000,426.900000L3076.400000,426.900000L3076.400000,398.200000L3080.600000,398.200000ZM3105.600000,398.200000L3105.600000,426.900000L3101.400000,426.900000L3101.400000,398.200000L3105.600000,398.200000ZM3088.900000,398.200000L3088.900000,426.900000L3084.700000,426.900000L3084.700000,398.200000L3088.900000,398.200000Z" fill="rgb(215,168,20)" stroke="none" stroke-width="1"/></g><g id="ep4g8dt5zmds151"><rect id="ep4g8dt5zmds152" width="41.700000" height="41" rx="0" ry="0" transform="matrix(1 0 0 1 3174.40000000000009 351)" fill="rgb(17,118,169)" stroke="none" stroke-width="1"/><path id="ep4g8dt5zmds153" d="M3197.400000,357.200000L3197.400000,385.900000L3201.600000,385.900000L3201.600000,357.200000L3197.400000,357.200000ZM3184.900000,357.200000L3184.900000,385.900000L3180.700000,385.900000L3180.700000,357.200000L3184.900000,357.200000ZM3209.900000,357.200000L3209.900000,385.900000L3205.700000,385.900000L3205.700000,357.200000L3209.900000,357.200000ZM3193.200000,357.200000L3193.200000,385.900000L3189,385.900000L3189,357.200000L3193.200000,357.200000Z" fill="rgb(15,106,152)" stroke="none" stroke-width="1"/></g><g id="ep4g8dt5zmds154"><rect id="ep4g8dt5zmds155" width="41.700000" height="41" rx="0" ry="0" transform="matrix(1 0 0 1 3111.90000000000009 392)" fill="rgb(17,118,169)" stroke="none" stroke-width="1"/><path id="ep4g8dt5zmds156" d="M3134.800000,398.200000L3134.800000,426.900000L3139,426.900000L3139,398.200000L3134.800000,398.200000ZM3122.300000,398.200000L3122.300000,426.900000L3118.100000,426.900000L3118.100000,398.200000L3122.300000,398.200000ZM3147.300000,398.200000L3147.300000,426.900000L3143.100000,426.900000L3143.100000,398.200000L3147.300000,398.200000ZM3130.600000,398.200000L3130.600000,426.900000L3126.400000,426.900000L3126.400000,398.200000L3130.600000,398.200000Z" fill="rgb(15,106,152)" stroke="none" stroke-width="1"/></g><g id="ep4g8dt5zmds157"><rect id="ep4g8dt5zmds158" width="41.700000" height="41" rx="0" ry="0" transform="matrix(1 0 0 1 3237 392)" fill="rgb(17,118,169)" stroke="none" stroke-width="1"/><path id="ep4g8dt5zmds159" d="M3260,398.200000L3260,426.900000L3264.200000,426.900000L3264.200000,398.200000L3260,398.200000ZM3247.500000,398.200000L3247.500000,426.900000L3243.300000,426.900000L3243.300000,398.200000L3247.500000,398.200000ZM3272.500000,398.200000L3272.500000,426.900000L3268.300000,426.900000L3268.300000,398.200000L3272.500000,398.200000ZM3255.800000,398.200000L3255.800000,426.900000L3251.600000,426.900000L3251.600000,398.200000L3255.800000,398.200000Z" fill="rgb(15,106,152)" stroke="none" stroke-width="1"/></g><g id="ep4g8dt5zmds160"><rect id="ep4g8dt5zmds161" width="41.700000" height="41" rx="0" ry="0" transform="matrix(1 0 0 1 3216.19999999999982 351)" fill="rgb(144,198,65)" stroke="none" stroke-width="1"/><path id="ep4g8dt5zmds162" d="M3239.100000,357.200000L3239.100000,385.900000L3243.300000,385.900000L3243.300000,357.200000L3239.100000,357.200000ZM3226.600000,357.200000L3226.600000,385.900000L3222.400000,385.900000L3222.400000,357.200000L3226.600000,357.200000ZM3251.600000,357.200000L3251.600000,385.900000L3247.400000,385.900000L3247.400000,357.200000L3251.600000,357.200000ZM3234.900000,357.200000L3234.900000,385.900000L3230.700000,385.900000L3230.700000,357.200000L3234.900000,357.200000Z" fill="rgb(131,180,59)" stroke="none" stroke-width="1"/></g><g id="ep4g8dt5zmds163"><rect id="ep4g8dt5zmds164" width="41.700000" height="41" rx="0" ry="0" transform="matrix(1 0 0 1 3091 351)" fill="rgb(144,198,65)" stroke="none" stroke-width="1"/><path id="ep4g8dt5zmds165" d="M3113.900000,357.200000L3113.900000,385.900000L3118.100000,385.900000L3118.100000,357.200000L3113.900000,357.200000ZM3101.400000,357.200000L3101.400000,385.900000L3097.200000,385.900000L3097.200000,357.200000L3101.400000,357.200000ZM3126.500000,357.200000L3126.500000,385.900000L3122.300000,385.900000L3122.300000,357.200000L3126.500000,357.200000ZM3109.800000,357.200000L3109.800000,385.900000L3105.600000,385.900000L3105.600000,357.200000L3109.800000,357.200000Z" fill="rgb(131,180,59)" stroke="none" stroke-width="1"/></g><g id="ep4g8dt5zmds166"><rect id="ep4g8dt5zmds167" width="41.700000" height="41" rx="0" ry="0" transform="matrix(1 0 0 1 3153.59999999999991 392)" fill="rgb(144,198,65)" stroke="none" stroke-width="1"/><path id="ep4g8dt5zmds168" d="M3176.500000,398.200000L3176.500000,426.900000L3180.700000,426.900000L3180.700000,398.200000L3176.500000,398.200000ZM3164,398.200000L3164,426.900000L3159.800000,426.900000L3159.800000,398.200000L3164,398.200000ZM3189.100000,398.200000L3189.100000,426.900000L3184.900000,426.900000L3184.900000,398.200000L3189.100000,398.200000ZM3172.400000,398.200000L3172.400000,426.900000L3168.200000,426.900000L3168.200000,398.200000L3172.400000,398.200000Z" fill="rgb(131,180,59)" stroke="none" stroke-width="1"/></g></g></g><g id="ep4g8dt5zmds169"><rect id="ep4g8dt5zmds170" width="88.300000" height="39.200000" rx="0" ry="0" transform="matrix(1 0 0 1 2755.30000000000018 463.50000000000000)" fill="rgb(144,198,65)" stroke="none" stroke-width="1"/><path id="ep4g8dt5zmds171" d="M2811.700000,470.900000L2811.700000,495.400000L2816.600000,495.400000L2816.600000,470.900000L2811.700000,470.900000ZM2806.800000,470.900000L2806.800000,495.400000L2801.900000,495.400000L2801.900000,470.900000L2806.800000,470.900000ZM2836.200000,470.900000L2836.200000,495.400000L2831.300000,495.400000L2831.300000,470.900000L2836.200000,470.900000ZM2826.400000,470.900000L2826.400000,495.400000L2821.500000,495.400000L2821.500000,470.900000L2826.400000,470.900000ZM2767.600000,470.900000L2767.600000,495.400000L2762.700000,495.400000L2762.700000,470.900000L2767.600000,470.900000ZM2777.400000,470.900000L2777.400000,495.400000L2772.500000,495.400000L2772.500000,470.900000L2777.400000,470.900000ZM2787.200000,470.900000L2787.200000,495.400000L2782.300000,495.400000L2782.300000,470.900000L2787.200000,470.900000ZM2797,470.900000L2797,495.400000L2792.100000,495.400000L2792.100000,470.900000L2797,470.900000Z" fill="rgb(131,180,59)" stroke="none" stroke-width="1"/></g><g id="ep4g8dt5zmds172"><rect id="ep4g8dt5zmds173" width="185.800000" height="74.700000" rx="0" ry="0" transform="matrix(1 0 0 1 2941.19999999999982 567.60000000000002)" fill="rgb(238,187,23)" stroke="none" stroke-width="1"/><path id="ep4g8dt5zmds174" d="M3039.300000,581.600000L3039.300000,628.300000L3049.600000,628.300000L3049.600000,581.600000L3039.300000,581.600000ZM3070.300000,581.600000L3070.300000,628.300000L3060,628.300000L3060,581.600000L3070.300000,581.600000ZM3111.600000,581.600000L3111.600000,628.300000L3101.300000,628.300000L3101.300000,581.600000L3111.600000,581.600000ZM3090.900000,581.600000L3090.900000,628.300000L3080.600000,628.300000L3080.600000,581.600000L3090.900000,581.600000ZM3028.900000,581.600000L3028.900000,628.300000L3018.600000,628.300000L3018.600000,581.600000L3028.900000,581.600000ZM2967,581.600000L2967,628.300000L2956.700000,628.300000L2956.700000,581.600000L2967,581.600000ZM2987.600000,581.600000L2987.600000,628.300000L2977.300000,628.300000L2977.300000,581.600000L2987.600000,581.600000ZM3008.300000,581.600000L3008.300000,628.300000L2998,628.300000L2998,581.600000L3008.300000,581.600000Z" fill="rgb(215,168,20)" stroke="none" stroke-width="1"/></g></g><path id="ep4g8dt5zmds175" d="M1721.600000,1623L-351,1623C-184.900000,1379,216.400000,1207,685.300000,1207C1154.100000,1207,1555.500000,1379,1721.600000,1623Z" fill="rgb(141,197,64)" stroke="none" stroke-width="1"/><polygon id="ep4g8dt5zmds176" points="175.600000,792.700000 177.800000,792.700000 178.600000,792.700000 180.800000,792.700000 187.400000,1350 178.600000,1350 177.800000,1350 169,1350" fill="rgb(208,211,214)" stroke="none" stroke-width="1"/><path id="ep4g8dt5zmds177" d="M4650,1589L1476.300000,1589C1901.600000,1132.900000,2218.600000,750,3154.300000,750C4090,750,4650,1589,4650,1589Z" transform="matrix(1 0 0 1 0 -2.06999999999982)" fill="rgb(185,213,69)" stroke="none" stroke-width="1"/><g id="ep4g8dt5zmds178"><g id="ep4g8dt5zmds179"><ellipse id="ep4g8dt5zmds180" rx="108.200000" ry="108.200000" transform="matrix(0.70710000000000 -0.70710000000000 0.70710000000000 0.70710000000000 1029.64247999999998 1279.07073999999966)" fill="rgb(167,211,112)" stroke="none" stroke-width="1"/></g><g id="ep4g8dt5zmds181"><path id="ep4g8dt5zmds182" d="M921.500000,1279.100000C921.500000,1219.300000,969.900000,1170.900000,1029.700000,1170.900000L1029.700000,1387.300000C969.900000,1387.300000,921.500000,1338.900000,921.500000,1279.100000Z" fill="rgb(108,167,67)" stroke="none" stroke-width="1"/></g><g id="ep4g8dt5zmds183"><g id="ep4g8dt5zmds184"><path id="ep4g8dt5zmds185" d="M1029.700000,1450C1031.700000,1450,1033.400000,1448.300000,1033.400000,1446.300000L1033.400000,1294.700000C1033.400000,1292.700000,1031.700000,1291,1029.700000,1291C1027.700000,1291,1026,1292.700000,1026,1294.700000L1026,1446.300000C1026,1448.400000,1027.600000,1450,1029.700000,1450L1029.700000,1450Z" fill="rgb(49,49,49)" stroke="none" stroke-width="1"/></g><g id="ep4g8dt5zmds186"><path id="ep4g8dt5zmds187" d="M1029.700000,1353.700000C1030.600000,1353.700000,1031.600000,1353.300000,1032.300000,1352.600000C1033.700000,1351.200000,1033.700000,1348.800000,1032.300000,1347.400000L1009.800000,1324.900000C1008.400000,1323.500000,1006,1323.500000,1004.600000,1324.900000C1003.200000,1326.300000,1003.200000,1328.700000,1004.600000,1330.100000L1027.100000,1352.600000C1027.800000,1353.400000,1028.700000,1353.700000,1029.700000,1353.700000L1029.700000,1353.700000Z" fill="rgb(49,49,49)" stroke="none" stroke-width="1"/></g><g id="ep4g8dt5zmds188"><path id="ep4g8dt5zmds189" d="M1029.700000,1334.100000C1030.600000,1334.100000,1031.600000,1333.700000,1032.300000,1333L1062.200000,1303.100000C1063.600000,1301.700000,1063.600000,1299.300000,1062.200000,1297.900000C1060.800000,1296.500000,1058.400000,1296.500000,1057,1297.900000L1027.100000,1327.800000C1025.700000,1329.200000,1025.700000,1331.600000,1027.100000,1333C1027.800000,1333.700000,1028.700000,1334.100000,1029.700000,1334.100000L1029.700000,1334.100000Z" fill="rgb(49,49,49)" stroke="none" stroke-width="1"/></g></g></g><path id="ep4g8dt5zmds190" d="M3466.600000,930.900000L2965,917.500000L2562.300000,917.500000C2543.200000,917.500000,2527.700000,933,2527.700000,952C2527.700000,971.100000,2543.200000,986.500000,2562.300000,986.500000L2707.800000,986.500000C2726.900000,986.500000,2742.400000,1002,2742.400000,1021C2742.400000,1040.100000,2726.900000,1055.600000,2707.800000,1055.600000L2401.900000,1055.600000C2382.800000,1055.600000,2367.400000,1071.100000,2367.400000,1090.100000C2367.400000,1109.200000,2382.900000,1124.700000,2401.900000,1124.700000L2607.700000,1124.700000C2626.800000,1124.700000,2642.200000,1140.200000,2642.200000,1159.300000C2642.200000,1178.400000,2626.700000,1193.800000,2607.700000,1193.800000L2562.300000,1193.800000C2543.200000,1193.800000,2527.700000,1209.300000,2527.700000,1228.300000C2527.700000,1247.400000,2543.200000,1262.900000,2562.300000,1262.900000L3947.600000,1262.900000L3466.600000,930.900000ZM2456.400000,986.500000C2437.300000,986.500000,2421.800000,971,2421.800000,952C2421.800000,933,2437.300000,917.500000,2456.400000,917.500000C2475.500000,917.500000,2491,933,2491,952C2491,971,2475.500000,986.500000,2456.400000,986.500000Z" fill="rgb(169,195,61)" stroke="none" stroke-width="1"/><g id="ep4g8dt5zmds191"><polygon id="ep4g8dt5zmds192" points="529.700000,1395.200000 531.500000,1395.200000 532.100000,1395.200000 534,1395.200000 539.500000,1862 532.100000,1862 531.500000,1862 524.100000,1862" fill="rgb(208,211,214)" stroke="none" stroke-width="1"/></g><g id="ep4g8dt5zmds193"><polygon id="ep4g8dt5zmds194" points="332.400000,1115.200000 330.200000,1115.200000 329.500000,1115.200000 327.400000,1115.200000 321,1654 329.500000,1654 330.200000,1654 338.800000,1654" fill="rgb(208,211,214)" stroke="none" stroke-width="1"/></g></g><g id="ep4g8dt5zmds195"><g id="ep4g8dt5zmds196_to" transform="translate(3490.950098,1262.666667)"><g id="ep4g8dt5zmds196_ts" transform="scale(1,1)"><g id="ep4g8dt5zmds196" transform="translate(-2602.350000,-1273)"><rect id="ep4g8dt5zmds197" width="244.300000" height="9" rx="0" ry="0" transform="matrix(1 0 0 1 2317 1261.09999999999991)" clip-rule="evenodd" fill="rgb(41,49,52)" fill-rule="evenodd" stroke="none" stroke-width="1"/><path id="ep4g8dt5zmds198" d="M2636,1261.100000L2247.800000,1261.100000C2242.400000,1261.100000,2238,1256.700000,2238,1251.400000L2238,1251.400000C2238,1207.200000,2274.200000,1171,2318.400000,1171L2636,1171L2636,1261.100000Z" clip-rule="evenodd" fill="rgb(190,96,0)" fill-rule="evenodd" stroke="none" stroke-width="1"/><path id="ep4g8dt5zmds199" d="M2636,1261.100000L2247.800000,1261.100000C2242.400000,1261.100000,2238,1256.700000,2238,1251.400000L2238,1251.400000C2238,1221,2255.100000,1194.500000,2280.100000,1180.800000C2282.600000,1180.600000,2285,1180.500000,2287.600000,1180.500000L2636,1180.500000L2636,1261.100000L2636,1261.100000Z" clip-rule="evenodd" fill="rgb(230,230,230)" fill-rule="evenodd" stroke="none" stroke-width="1"/><path id="ep4g8dt5zmds200" d="M2636,1261.100000L2247.800000,1261.100000C2243,1261.100000,2239.100000,1257.700000,2238.200000,1253.200000L2636,1253.200000L2636,1261.100000L2636,1261.100000Z" clip-rule="evenodd" fill="rgb(190,96,0)" fill-rule="evenodd" stroke="none" stroke-width="1"/><path id="ep4g8dt5zmds201" d="M2300,1261.100000L2247.700000,1261.100000C2242.300000,1261.100000,2237.900000,1256.700000,2237.900000,1251.400000L2237.900000,1251.400000C2237.900000,1248.700000,2238.100000,1246,2238.400000,1243.400000L2287.800000,1243.400000C2294.500000,1243.400000,2299.900000,1248.900000,2299.900000,1255.600000L2300,1261.100000L2300,1261.100000Z" clip-rule="evenodd" fill="rgb(26,35,37)" fill-rule="evenodd" stroke="none" stroke-width="1"/><path id="ep4g8dt5zmds202" d="M2245.200000,1218.200000C2250.400000,1206.700000,2258.400000,1196.500000,2268.100000,1188.700000L2287,1188.700000C2295.100000,1188.700000,2301.700000,1195.400000,2301.700000,1203.500000L2301.700000,1203.500000C2301.700000,1211.600000,2295.100000,1218.200000,2287,1218.200000L2245.200000,1218.200000Z" clip-rule="evenodd" fill="rgb(41,49,52)" fill-rule="evenodd" stroke="none" stroke-width="1"/><path id="ep4g8dt5zmds203" d="M2613.300000,1189.800000L2591.300000,1189.800000C2588,1189.800000,2585.400000,1192.500000,2585.400000,1195.800000L2585.400000,1261L2619.300000,1261L2619.300000,1195.800000C2619.200000,1192.500000,2616.600000,1189.800000,2613.300000,1189.800000L2613.300000,1189.800000Z" clip-rule="evenodd" fill="rgb(190,96,0)" fill-rule="evenodd" stroke="none" stroke-width="1"/><path id="ep4g8dt5zmds204" d="M2612.900000,1193.900000L2591.600000,1193.900000C2590.100000,1193.900000,2589,1195.100000,2589,1196.600000L2589,1206.900000C2589,1208.400000,2590.200000,1209.600000,2591.600000,1209.600000L2612.900000,1209.600000C2614.400000,1209.600000,2615.500000,1208.400000,2615.500000,1206.900000L2615.500000,1196.600000C2615.600000,1195.100000,2614.400000,1193.900000,2612.900000,1193.900000L2612.900000,1193.900000Z" clip-rule="evenodd" fill="rgb(41,49,52)" fill-rule="evenodd" stroke="none" stroke-width="1"/><rect id="ep4g8dt5zmds205" width="8" height="90" rx="0" ry="0" transform="matrix(1 0 0 1 2636 1171)" clip-rule="evenodd" fill="rgb(64,73,76)" fill-rule="evenodd" stroke="none" stroke-width="1"/><path id="ep4g8dt5zmds206" d="M2544.100000,1193.900000C2537,1193.900000,2529.900000,1193.900000,2522.800000,1193.900000C2521.300000,1193.900000,2520.100000,1195.100000,2520.100000,1196.600000C2520.100000,1200.100000,2520.100000,1203.400000,2520.100000,1206.900000C2520.100000,1208.400000,2521.400000,1209.600000,2522.800000,1209.600000C2529.800000,1209.600000,2537,1209.600000,2544.100000,1209.600000C2545.600000,1209.600000,2546.700000,1208.400000,2546.700000,1206.900000C2546.700000,1203.400000,2546.700000,1200.100000,2546.700000,1196.600000C2546.700000,1195.100000,2545.500000,1193.900000,2544.100000,1193.900000L2544.100000,1193.900000ZM2509.900000,1193.900000C2502.900000,1193.900000,2495.700000,1193.900000,2488.700000,1193.900000C2487.100000,1193.900000,2486,1195.100000,2486,1196.600000C2486,1200.100000,2486,1203.400000,2486,1206.900000C2486,1208.400000,2487.200000,1209.600000,2488.700000,1209.600000C2495.700000,1209.600000,2502.900000,1209.600000,2509.900000,1209.600000C2511.400000,1209.600000,2512.600000,1208.400000,2512.600000,1206.900000C2512.600000,1203.400000,2512.600000,1200.100000,2512.600000,1196.600000C2512.600000,1195.100000,2511.400000,1193.900000,2509.900000,1193.900000L2509.900000,1193.900000ZM2475.800000,1193.900000C2468.700000,1193.900000,2461.600000,1193.900000,2454.500000,1193.900000C2453,1193.900000,2451.900000,1195.100000,2451.900000,1196.600000C2451.900000,1200.100000,2451.900000,1203.400000,2451.900000,1206.900000C2451.900000,1208.400000,2453.100000,1209.600000,2454.500000,1209.600000C2461.600000,1209.600000,2468.700000,1209.600000,2475.800000,1209.600000C2477.300000,1209.600000,2478.400000,1208.400000,2478.400000,1206.900000C2478.400000,1203.400000,2478.400000,1200.100000,2478.400000,1196.600000C2478.500000,1195.100000,2477.300000,1193.900000,2475.800000,1193.900000L2475.800000,1193.900000ZM2441.700000,1193.900000C2434.600000,1193.900000,2427.500000,1193.900000,2420.400000,1193.900000C2418.900000,1193.900000,2417.700000,1195.100000,2417.700000,1196.600000C2417.700000,1200.100000,2417.700000,1203.400000,2417.700000,1206.900000C2417.700000,1208.400000,2419,1209.600000,2420.400000,1209.600000C2427.400000,1209.600000,2434.600000,1209.600000,2441.700000,1209.600000C2443.200000,1209.600000,2444.300000,1208.400000,2444.300000,1206.900000C2444.300000,1203.400000,2444.300000,1200.100000,2444.300000,1196.600000C2444.400000,1195.100000,2443.200000,1193.900000,2441.700000,1193.900000L2441.700000,1193.900000ZM2407.600000,1193.900000C2400.600000,1193.900000,2393.400000,1193.900000,2386.300000,1193.900000C2384.800000,1193.900000,2383.700000,1195.100000,2383.700000,1196.600000C2383.700000,1200.100000,2383.700000,1203.400000,2383.700000,1206.900000C2383.700000,1208.400000,2384.900000,1209.600000,2386.300000,1209.600000C2393.400000,1209.600000,2400.500000,1209.600000,2407.600000,1209.600000C2409.100000,1209.600000,2410.300000,1208.400000,2410.300000,1206.900000C2410.300000,1203.400000,2410.300000,1200.100000,2410.300000,1196.600000C2410.300000,1195.100000,2409,1193.900000,2407.600000,1193.900000L2407.600000,1193.900000ZM2373.500000,1193.900000C2366.400000,1193.900000,2359.300000,1193.900000,2352.200000,1193.900000C2350.700000,1193.900000,2349.600000,1195.100000,2349.600000,1196.600000C2349.600000,1200.100000,2349.600000,1203.400000,2349.600000,1206.900000C2349.600000,1208.400000,2350.800000,1209.600000,2352.200000,1209.600000C2359.300000,1209.600000,2366.400000,1209.600000,2373.500000,1209.600000C2375,1209.600000,2376.100000,1208.400000,2376.100000,1206.900000C2376.100000,1203.400000,2376.100000,1200.100000,2376.100000,1196.600000C2376.100000,1195.100000,2374.900000,1193.900000,2373.500000,1193.900000L2373.500000,1193.900000ZM2339.300000,1193.900000L2318.100000,1193.900000C2316.600000,1193.900000,2315.400000,1195.100000,2315.400000,1196.600000L2315.400000,1206.900000C2315.400000,1208.400000,2316.700000,1209.600000,2318.100000,1209.600000L2339.300000,1209.600000C2340.900000,1209.600000,2342,1208.400000,2342,1206.900000L2342,1196.600000C2342.100000,1195.100000,2340.900000,1193.900000,2339.300000,1193.900000L2339.300000,1193.900000ZM2578.100000,1193.900000L2556.800000,1193.900000C2555.300000,1193.900000,2554.200000,1195.100000,2554.200000,1196.600000L2554.200000,1206.900000C2554.200000,1208.400000,2555.400000,1209.600000,2556.800000,1209.600000L2578.100000,1209.600000C2579.600000,1209.600000,2580.700000,1208.400000,2580.700000,1206.900000L2580.700000,1196.600000C2580.800000,1195.100000,2579.600000,1193.900000,2578.100000,1193.900000L2578.100000,1193.900000Z" clip-rule="evenodd" fill="rgb(41,49,52)" fill-rule="evenodd" stroke="none" stroke-width="1"/><path id="ep4g8dt5zmds207" d="M2550.700000,1261.100000L2553,1269.500000C2553.500000,1271.400000,2555.400000,1273,2557.200000,1273C2566.500000,1273,2575.900000,1273,2585.300000,1273C2594.700000,1273,2604,1273,2613.400000,1273C2615.200000,1273,2617,1271.400000,2617.600000,1269.500000L2619.800000,1261.100000L2550.700000,1261.100000Z" clip-rule="evenodd" fill="rgb(26,35,37)" fill-rule="evenodd" stroke="none" stroke-width="1"/><path id="ep4g8dt5zmds208" d="M2257.200000,1261.100000L2259.500000,1269.500000C2260,1271.400000,2261.900000,1273,2263.700000,1273C2273,1273,2282.400000,1273,2291.800000,1273C2301.200000,1273,2310.500000,1273,2319.900000,1273C2321.700000,1273,2323.500000,1271.400000,2324.100000,1269.500000L2326.300000,1261.100000L2257.200000,1261.100000Z" clip-rule="evenodd" fill="rgb(26,35,37)" fill-rule="evenodd" stroke="none" stroke-width="1"/><path id="ep4g8dt5zmds209" d="M2576.400000,1222.600000L2313.400000,1222.600000L2313.400000,1228.700000L2576.400000,1228.700000L2576.400000,1222.600000ZM2576.400000,1236.200000L2313.400000,1236.200000L2313.400000,1242.300000L2576.400000,1242.300000L2576.400000,1236.200000Z" clip-rule="evenodd" fill="rgb(153,153,153)" fill-rule="evenodd" stroke="none" stroke-width="1"/><g id="ep4g8dt5zmds210"><rect id="ep4g8dt5zmds211" width="306.900000" height="90.100000" rx="0" ry="0" transform="matrix(1 0 0 1 2659.09999999999991 1171)" clip-rule="evenodd" fill="rgb(190,96,0)" fill-rule="evenodd" stroke="none" stroke-width="1"/><rect id="ep4g8dt5zmds212" width="306.900000" height="80.600000" rx="0" ry="0" transform="matrix(1 0 0 1 2659.09999999999991 1180.50000000000000)" clip-rule="evenodd" fill="rgb(230,230,230)" fill-rule="evenodd" stroke="none" stroke-width="1"/><rect id="ep4g8dt5zmds213" width="153.200000" height="4.900000" rx="0" ry="0" transform="matrix(1 0 0 1 2733.80000000000018 1261.09999999999991)" clip-rule="evenodd" fill="rgb(41,49,52)" fill-rule="evenodd" stroke="none" stroke-width="1"/><path id="ep4g8dt5zmds214" d="M2681.800000,1189.800000L2703.800000,1189.800000C2707.100000,1189.800000,2709.700000,1192.500000,2709.700000,1195.800000L2709.700000,1261L2675.800000,1261L2675.800000,1195.800000C2675.900000,1192.500000,2678.500000,1189.800000,2681.800000,1189.800000L2681.800000,1189.800000Z" clip-rule="evenodd" fill="rgb(190,96,0)" fill-rule="evenodd" stroke="none" stroke-width="1"/><path id="ep4g8dt5zmds215" d="M2682.200000,1193.900000L2703.500000,1193.900000C2705,1193.900000,2706.100000,1195.100000,2706.100000,1196.600000L2706.100000,1206.900000C2706.100000,1208.400000,2704.900000,1209.600000,2703.500000,1209.600000L2682.200000,1209.600000C2680.700000,1209.600000,2679.600000,1208.400000,2679.600000,1206.900000L2679.600000,1196.600000C2679.500000,1195.100000,2680.700000,1193.900000,2682.200000,1193.900000L2682.200000,1193.900000Z" clip-rule="evenodd" fill="rgb(41,49,52)" fill-rule="evenodd" stroke="none" stroke-width="1"/><rect id="ep4g8dt5zmds216" width="8" height="90" rx="0" ry="0" transform="matrix(1 0 0 1 2651.09999999999991 1171)" clip-rule="evenodd" fill="rgb(64,73,76)" fill-rule="evenodd" stroke="none" stroke-width="1"/><rect id="ep4g8dt5zmds217" width="8" height="90" rx="0" ry="0" transform="matrix(1 0 0 1 2966.09999999999991 1171)" clip-rule="evenodd" fill="rgb(64,73,76)" fill-rule="evenodd" stroke="none" stroke-width="1"/><path id="ep4g8dt5zmds218" d="M2751.100000,1193.900000C2758.200000,1193.900000,2765.300000,1193.900000,2772.400000,1193.900000C2773.900000,1193.900000,2775.100000,1195.100000,2775.100000,1196.600000C2775.100000,1200.100000,2775.100000,1203.400000,2775.100000,1206.900000C2775.100000,1208.400000,2773.800000,1209.600000,2772.400000,1209.600000C2765.400000,1209.600000,2758.200000,1209.600000,2751.100000,1209.600000C2749.600000,1209.600000,2748.500000,1208.400000,2748.500000,1206.900000C2748.500000,1203.400000,2748.500000,1200.100000,2748.500000,1196.600000C2748.400000,1195.100000,2749.600000,1193.900000,2751.100000,1193.900000L2751.100000,1193.900000Z" clip-rule="evenodd" fill="rgb(41,49,52)" fill-rule="evenodd" stroke="none" stroke-width="1"/><path id="ep4g8dt5zmds219" d="M2785.200000,1193.900000C2792.200000,1193.900000,2799.400000,1193.900000,2806.400000,1193.900000C2808,1193.900000,2809.100000,1195.100000,2809.100000,1196.600000C2809.100000,1200.100000,2809.100000,1203.400000,2809.100000,1206.900000C2809.100000,1208.400000,2807.900000,1209.600000,2806.400000,1209.600000C2799.400000,1209.600000,2792.200000,1209.600000,2785.200000,1209.600000C2783.700000,1209.600000,2782.500000,1208.400000,2782.500000,1206.900000C2782.500000,1203.400000,2782.500000,1200.100000,2782.500000,1196.600000C2782.500000,1195.100000,2783.800000,1193.900000,2785.200000,1193.900000L2785.200000,1193.900000Z" clip-rule="evenodd" fill="rgb(41,49,52)" fill-rule="evenodd" stroke="none" stroke-width="1"/><path id="ep4g8dt5zmds220" d="M2819.300000,1193.900000C2826.400000,1193.900000,2833.500000,1193.900000,2840.600000,1193.900000C2842.100000,1193.900000,2843.200000,1195.100000,2843.200000,1196.600000C2843.200000,1200.100000,2843.200000,1203.400000,2843.200000,1206.900000C2843.200000,1208.400000,2842,1209.600000,2840.600000,1209.600000C2833.500000,1209.600000,2826.400000,1209.600000,2819.300000,1209.600000C2817.800000,1209.600000,2816.700000,1208.400000,2816.700000,1206.900000C2816.700000,1203.400000,2816.700000,1200.100000,2816.700000,1196.600000C2816.600000,1195.100000,2817.800000,1193.900000,2819.300000,1193.900000L2819.300000,1193.900000Z" clip-rule="evenodd" fill="rgb(41,49,52)" fill-rule="evenodd" stroke="none" stroke-width="1"/><path id="ep4g8dt5zmds221" d="M2853.400000,1193.900000C2860.500000,1193.900000,2867.600000,1193.900000,2874.700000,1193.900000C2876.200000,1193.900000,2877.400000,1195.100000,2877.400000,1196.600000C2877.400000,1200.100000,2877.400000,1203.400000,2877.400000,1206.900000C2877.400000,1208.400000,2876.100000,1209.600000,2874.700000,1209.600000C2867.700000,1209.600000,2860.500000,1209.600000,2853.400000,1209.600000C2851.900000,1209.600000,2850.800000,1208.400000,2850.800000,1206.900000C2850.800000,1203.400000,2850.800000,1200.100000,2850.800000,1196.600000C2850.700000,1195.100000,2851.900000,1193.900000,2853.400000,1193.900000L2853.400000,1193.900000Z" clip-rule="evenodd" fill="rgb(41,49,52)" fill-rule="evenodd" stroke="none" stroke-width="1"/><path id="ep4g8dt5zmds222" d="M2887.600000,1193.900000C2894.600000,1193.900000,2901.800000,1193.900000,2908.900000,1193.900000C2910.400000,1193.900000,2911.500000,1195.100000,2911.500000,1196.600000C2911.500000,1200.100000,2911.500000,1203.400000,2911.500000,1206.900000C2911.500000,1208.400000,2910.300000,1209.600000,2908.900000,1209.600000C2901.800000,1209.600000,2894.700000,1209.600000,2887.600000,1209.600000C2886.100000,1209.600000,2884.900000,1208.400000,2884.900000,1206.900000C2884.900000,1203.400000,2884.900000,1200.100000,2884.900000,1196.600000C2884.800000,1195.100000,2886.100000,1193.900000,2887.600000,1193.900000L2887.600000,1193.900000Z" clip-rule="evenodd" fill="rgb(41,49,52)" fill-rule="evenodd" stroke="none" stroke-width="1"/><path id="ep4g8dt5zmds223" d="M2921.600000,1193.900000C2928.700000,1193.900000,2935.800000,1193.900000,2942.900000,1193.900000C2944.400000,1193.900000,2945.500000,1195.100000,2945.500000,1196.600000C2945.500000,1200.100000,2945.500000,1203.400000,2945.500000,1206.900000C2945.500000,1208.400000,2944.300000,1209.600000,2942.900000,1209.600000C2935.800000,1209.600000,2928.700000,1209.600000,2921.600000,1209.600000C2920.100000,1209.600000,2919,1208.400000,2919,1206.900000C2919,1203.400000,2919,1200.100000,2919,1196.600000C2919,1195.100000,2920.200000,1193.900000,2921.600000,1193.900000L2921.600000,1193.900000Z" clip-rule="evenodd" fill="rgb(41,49,52)" fill-rule="evenodd" stroke="none" stroke-width="1"/><path id="ep4g8dt5zmds224" d="M2717,1193.900000L2738.300000,1193.900000C2739.800000,1193.900000,2740.900000,1195.100000,2740.900000,1196.600000L2740.900000,1206.900000C2740.900000,1208.400000,2739.700000,1209.600000,2738.300000,1209.600000L2717,1209.600000C2715.500000,1209.600000,2714.400000,1208.400000,2714.400000,1206.900000L2714.400000,1196.600000C2714.300000,1195.100000,2715.500000,1193.900000,2717,1193.900000L2717,1193.900000Z" clip-rule="evenodd" fill="rgb(41,49,52)" fill-rule="evenodd" stroke="none" stroke-width="1"/><path id="ep4g8dt5zmds225" d="M2744.400000,1261.100000L2742.100000,1269.500000C2741.600000,1271.400000,2739.700000,1273,2737.900000,1273C2728.600000,1273,2719.200000,1273,2709.800000,1273C2700.400000,1273,2691.100000,1273,2681.700000,1273C2679.900000,1273,2678.100000,1271.400000,2677.500000,1269.500000L2675.300000,1261.100000L2744.400000,1261.100000Z" clip-rule="evenodd" fill="rgb(26,35,37)" fill-rule="evenodd" stroke="none" stroke-width="1"/><path id="ep4g8dt5zmds226" d="M2949.900000,1261.100000L2947.600000,1269.500000C2947.100000,1271.400000,2945.200000,1273,2943.400000,1273C2934.100000,1273,2924.700000,1273,2915.300000,1273C2905.900000,1273,2896.600000,1273,2887.200000,1273C2885.400000,1273,2883.600000,1271.400000,2883,1269.500000L2880.800000,1261.100000L2949.900000,1261.100000Z" clip-rule="evenodd" fill="rgb(26,35,37)" fill-rule="evenodd" stroke="none" stroke-width="1"/><path id="ep4g8dt5zmds227" d="M2718.700000,1222.600000L2956,1222.600000L2956,1228.700000L2718.700000,1228.700000L2718.700000,1222.600000ZM2718.700000,1236.200000L2956,1236.200000L2956,1242.300000L2718.700000,1242.300000L2718.700000,1236.200000Z" clip-rule="evenodd" fill="rgb(153,153,153)" fill-rule="evenodd" stroke="none" stroke-width="1"/><rect id="ep4g8dt5zmds228" width="306.900000" height="7.900000" rx="0" ry="0" transform="matrix(1 0 0 1 2659.09999999999991 1253.20000000000005)" clip-rule="evenodd" fill="rgb(190,96,0)" fill-rule="evenodd" stroke="none" stroke-width="1"/></g><rect id="ep4g8dt5zmds229" width="7.100000" height="87" rx="0" ry="0" transform="matrix(1 0 0 1 2644 1172.79999999999995)" clip-rule="evenodd" fill="rgb(41,49,52)" fill-rule="evenodd" stroke="none" stroke-width="1"/></g></g></g><g id="ep4g8dt5zmds230_tr" transform="translate(178.800000,794.300000) rotate(1800)"><g id="ep4g8dt5zmds230" transform="translate(-178.800000,-794.300000)"><path id="ep4g8dt5zmds231" d="M181.700000,787.500000L276.600000,696C276.600000,696,280.900000,699.100000,277.400000,702.800000C271.200000,709.700000,201.700000,788,201.700000,788L190,786.400000L184.300000,790.900000L181.700000,787.500000Z" fill="rgb(208,211,214)" stroke="none" stroke-width="1"/><path id="ep4g8dt5zmds232" d="M183.200000,801.500000L213.800000,929.700000C213.800000,929.700000,209,931.800000,207.500000,926.900000C204.800000,918,172.500000,818.400000,172.500000,818.400000L179.800000,809.200000L178.800000,802L183.200000,801.500000Z" fill="rgb(208,211,214)" stroke="none" stroke-width="1"/><path id="ep4g8dt5zmds233" d="M171,795.900000L44.200000,759.800000C44.200000,759.800000,44.700000,754.600000,49.700000,755.600000C58.800000,757.600000,161.400000,778.300000,161.400000,778.300000L165.800000,789.200000L172.500000,791.900000L171,795.900000Z" fill="rgb(208,211,214)" stroke="none" stroke-width="1"/><path id="ep4g8dt5zmds234" d="M185.600000,786.800000C181.500000,783,175.100000,783.300000,171.300000,787.500000C167.500000,791.600000,167.800000,798,172,801.800000C176.100000,805.600000,182.600000,805.300000,186.300000,801.100000C190.100000,797,189.800000,790.500000,185.600000,786.800000Z" fill="rgb(208,211,214)" stroke="none" stroke-width="1"/></g></g><g id="ep4g8dt5zmds235_tr" transform="translate(329.900000,1108.900000) rotate(1800)"><g id="ep4g8dt5zmds235" transform="translate(-329.900000,-1108.900000)"><path id="ep4g8dt5zmds236" d="M336.200000,1111.200000L462.900000,1103C462.900000,1103,463.500000,1098,458.500000,1098C449.600000,1098,348.700000,1096.600000,348.700000,1096.600000L342.300000,1106L335.400000,1107.100000L336.200000,1111.200000Z" fill="rgb(208,211,214)" stroke="none" stroke-width="1"/><path id="ep4g8dt5zmds237" d="M327.200000,1101.100000L255.700000,996.100000C255.700000,996.100000,251.100000,998.200000,253.600000,1002.400000C258.100000,1010.100000,308.200000,1097.700000,308.200000,1097.700000L319.500000,1098.500000L324,1103.800000L327.200000,1101.100000Z" fill="rgb(208,211,214)" stroke="none" stroke-width="1"/><path id="ep4g8dt5zmds238" d="M323.300000,1113.400000L266.800000,1227.100000C266.800000,1227.100000,270.900000,1230.100000,273.300000,1225.900000C277.800000,1218.200000,329.600000,1131.600000,329.600000,1131.600000L324.700000,1121.400000L327.200000,1114.900000L323.300000,1113.400000Z" fill="rgb(208,211,214)" stroke="none" stroke-width="1"/><path id="ep4g8dt5zmds239" d="M339.300000,1108.900000C339.300000,1114.300000,334.900000,1118.700000,329.500000,1118.700000C324.100000,1118.700000,319.700000,1114.300000,319.700000,1108.900000C319.700000,1103.500000,324.100000,1099.100000,329.500000,1099.100000C334.900000,1099.100000,339.300000,1103.500000,339.300000,1108.900000Z" fill="rgb(208,211,214)" stroke="none" stroke-width="1"/></g></g><g id="ep4g8dt5zmds240_tr" transform="translate(530.300000,1396.100965) rotate(1800)"><g id="ep4g8dt5zmds240" transform="translate(-530.300000,-1396.100965)"><path id="ep4g8dt5zmds241" d="M535.800000,1394.200000L645.900000,1402.200000C645.900000,1402.200000,646.400000,1406.600000,642.100000,1406.500000C634.300000,1406.400000,546.600000,1407,546.600000,1407L541.100000,1398.800000L535.100000,1397.800000L535.800000,1394.200000Z" fill="rgb(208,211,214)" stroke="none" stroke-width="1"/><path id="ep4g8dt5zmds242" d="M527.900000,1402.900000L465.100000,1493.700000C465.100000,1493.700000,461.100000,1491.900000,463.300000,1488.200000C467.300000,1481.500000,511.400000,1405.700000,511.400000,1405.700000L521.200000,1405.100000L525.100000,1400.500000L527.900000,1402.900000Z" fill="rgb(208,211,214)" stroke="none" stroke-width="1"/><path id="ep4g8dt5zmds243" d="M524.600000,1392.200000L476.200000,1293C476.200000,1293,479.800000,1290.400000,481.900000,1294.100000C485.800000,1300.900000,530.300000,1376.400000,530.300000,1376.400000L526,1385.300000L528.100000,1391L524.600000,1392.200000Z" fill="rgb(208,211,214)" stroke="none" stroke-width="1"/><path id="ep4g8dt5zmds244" d="M538.500000,1396.200000C538.500000,1391.500000,534.800000,1387.700000,530.100000,1387.600000C525.400000,1387.600000,521.600000,1391.300000,521.600000,1396C521.600000,1400.700000,525.300000,1404.500000,530,1404.600000C534.600000,1404.700000,538.400000,1400.900000,538.500000,1396.200000Z" fill="rgb(208,211,214)" stroke="none" stroke-width="1"/></g></g><rect id="ep4g8dt5zmds245" width="46" height="46" rx="0" ry="0" transform="matrix(11.23419946644019 0 0 3.07403550301559 1178.21764299039705 1131.44436686142876)" fill="rgb(97,149,62)" stroke="none" stroke-width="1"/></g><g id="ep4g8dt5zmds246"><g id="ep4g8dt5zmds247" transform="matrix(1 0 0 1 0 -4)"><path id="ep4g8dt5zmds248" d="M2019.561369,1267L2019.561369,1550.700000L2066.680684,1550.700000L2065.900000,1470.400000C2065.900000,1386.600000,2133.800000,1318.700000,2217.600000,1318.700000C2301.400000,1318.700000,2369.300000,1386.600000,2369.300000,1470.400000L2369.300000,1553L2445.300000,1553L2445.300000,1470.400000C2445.300000,1386.600000,2513.200000,1318.700000,2597,1318.700000C2680.800000,1318.700000,2748.700000,1386.600000,2748.700000,1470.400000L2748.700000,1553L2847.800000,1553L2847.800000,1267L2019.561369,1267Z" transform="matrix(1 0 0 1 377.90854880499046 -0.85000000000298)" fill="rgb(128,128,128)" stroke="none" stroke-width="1"/><path id="ep4g8dt5zmds249" d="M1968,1267L1968,1553L2065.900000,1553L2065.900000,1470.400000C2065.900000,1386.600000,2133.800000,1318.700000,2217.600000,1318.700000C2301.400000,1318.700000,2369.300000,1386.600000,2369.300000,1470.400000L2369.300000,1553L2445.300000,1553L2445.300000,1470.400000C2445.300000,1386.600000,2513.200000,1318.700000,2597,1318.700000C2680.800000,1318.700000,2748.700000,1386.600000,2748.700000,1470.400000L2748.700000,1553L2847.800000,1553L2847.800000,1267.150000L1968,1267Z" transform="matrix(1 0 0 1 0 -1)" fill="rgb(128,128,128)" stroke="none" stroke-width="1"/></g><g id="ep4g8dt5zmds250"><g id="ep4g8dt5zmds251"><path id="ep4g8dt5zmds252" d="M1690,1155.100000C1690,1105.700000,1676,1048.600000,1647.500000,1048.600000C1619,1048.600000,1605,1105.700000,1605,1155.100000C1605,1173.200000,1619,1187.900000,1647.500000,1187.900000C1676,1187.800000,1690,1173.200000,1690,1155.100000Z" transform="matrix(1 0 0 1 0 -49.06999999999982)" fill="rgb(169,195,61)" stroke="none" stroke-width="1"/></g><g id="ep4g8dt5zmds253"><path id="ep4g8dt5zmds254" d="M1690,1155.100000C1690,1105.700000,1676,1048.600000,1647.500000,1048.600000L1647.500000,1187.800000C1676,1187.800000,1690,1173.200000,1690,1155.100000Z" transform="matrix(1 0 0 1 0 -49.06999999999982)" fill="rgb(160,186,60)" stroke="none" stroke-width="1"/></g><g id="ep4g8dt5zmds255"><g id="ep4g8dt5zmds256"><path id="ep4g8dt5zmds257" d="M1647.500000,1239.200000C1645.300000,1239.200000,1643.600000,1237.400000,1643.600000,1235.300000L1643.600000,1113.500000C1643.600000,1111.300000,1645.400000,1109.600000,1647.500000,1109.600000C1649.600000,1109.600000,1651.400000,1111.400000,1651.400000,1113.500000L1651.400000,1235.300000C1651.400000,1237.400000,1649.700000,1239.200000,1647.500000,1239.200000L1647.500000,1239.200000Z" transform="matrix(1 0 0 1 0 -49.06999999999982)" fill="rgb(49,49,49)" stroke="none" stroke-width="1"/></g><g id="ep4g8dt5zmds258"><path id="ep4g8dt5zmds259" d="M1647.500000,1161.800000C1646.500000,1161.800000,1645.500000,1161.400000,1644.700000,1160.600000L1626.600000,1142.500000C1625.100000,1141,1625.100000,1138.500000,1626.600000,1136.900000C1628.100000,1135.300000,1630.600000,1135.400000,1632.200000,1136.900000L1650.300000,1155C1651.800000,1156.500000,1651.800000,1159,1650.300000,1160.600000C1649.500000,1161.400000,1648.500000,1161.800000,1647.500000,1161.800000L1647.500000,1161.800000Z" transform="matrix(1 0 0 1 0 -49.06999999999982)" fill="rgb(49,49,49)" stroke="none" stroke-width="1"/></g><g id="ep4g8dt5zmds260"><path id="ep4g8dt5zmds261" d="M1647.500000,1146C1646.500000,1146,1645.500000,1145.600000,1644.700000,1144.800000C1643.200000,1143.300000,1643.200000,1140.800000,1644.700000,1139.200000L1668.800000,1115.100000C1670.300000,1113.600000,1672.800000,1113.600000,1674.400000,1115.100000C1676,1116.600000,1675.900000,1119.100000,1674.400000,1120.700000L1650.300000,1144.800000C1649.500000,1145.600000,1648.500000,1146,1647.500000,1146L1647.500000,1146Z" transform="matrix(1 0 0 1 0 -49.06999999999982)" fill="rgb(49,49,49)" stroke="none" stroke-width="1"/></g></g></g><g id="ep4g8dt5zmds262"><g id="ep4g8dt5zmds263"><ellipse id="ep4g8dt5zmds264" rx="60" ry="60" transform="matrix(1 0 0 1 3169.90000000000009 1029.90000000000009)" fill="rgb(168,211,111)" stroke="none" stroke-width="1"/></g><g id="ep4g8dt5zmds265"><path id="ep4g8dt5zmds266" d="M3230,1030C3230,996.900000,3203.100000,970,3170,970L3170,1090C3203.100000,1090,3230,1063.100000,3230,1030Z" fill="rgb(108,168,57)" stroke="none" stroke-width="1"/></g><g id="ep4g8dt5zmds267"><g id="ep4g8dt5zmds268"><path id="ep4g8dt5zmds269" d="M3170,1124.800000C3168.900000,1124.800000,3167.900000,1123.900000,3167.900000,1122.800000L3167.900000,1038.700000C3167.900000,1037.600000,3168.800000,1036.600000,3170,1036.600000C3171.100000,1036.600000,3172.100000,1037.500000,3172.100000,1038.700000L3172.100000,1122.800000C3172.100000,1123.900000,3171.100000,1124.800000,3170,1124.800000L3170,1124.800000Z" fill="rgb(49,49,49)" stroke="none" stroke-width="1"/></g><g id="ep4g8dt5zmds270"><path id="ep4g8dt5zmds271" d="M3170,1071.400000C3169.500000,1071.400000,3168.900000,1071.200000,3168.600000,1070.800000C3167.800000,1070,3167.800000,1068.700000,3168.600000,1067.900000L3181.100000,1055.400000C3181.900000,1054.600000,3183.200000,1054.600000,3184,1055.400000C3184.800000,1056.200000,3184.800000,1057.500000,3184,1058.300000L3171.500000,1070.800000C3171.100000,1071.200000,3170.500000,1071.400000,3170,1071.400000L3170,1071.400000Z" fill="rgb(49,49,49)" stroke="none" stroke-width="1"/></g><g id="ep4g8dt5zmds272"><path id="ep4g8dt5zmds273" d="M3170,1060.500000C3169.500000,1060.500000,3168.900000,1060.300000,3168.600000,1059.900000L3152,1043.300000C3151.200000,1042.500000,3151.200000,1041.200000,3152,1040.400000C3152.800000,1039.600000,3154.100000,1039.600000,3154.900000,1040.400000L3171.500000,1057C3172.300000,1057.800000,3172.300000,1059.100000,3171.500000,1059.900000C3171.100000,1060.300000,3170.500000,1060.500000,3170,1060.500000L3170,1060.500000Z" fill="rgb(49,49,49)" stroke="none" stroke-width="1"/></g></g></g><path id="ep4g8dt5zmds274" d="M2159.600000,1624C2159.900000,1617.687374,2160,1611.374747,2160,1604.953283C2160,1377.481061,1990.500000,1193,1781.500000,1193C1572.500000,1193,1403,1377.481061,1403,1604.953283C1403,1611.374747,1403.100000,1617.687374,1403.400000,1624L2159.600000,1624Z" transform="matrix(1 0 0 1 0 -47)" fill="rgb(108,168,67)" stroke="none" stroke-width="1"/><path id="ep4g8dt5zmds275" d="M4740.966090,1585.362574C4744.839793,1569.562574,4722.016692,1516.839493,4722.016692,1515.123061C4534.361270,1280.974204,4273.282776,1023.546816,3721.187777,1023.546816C3169.092777,1023.546816,2845.814457,1322.817510,2632.402409,1542.260884C2632.402409,1558.460884,2634.431492,1574.460884,2638.120733,1590.260884L4740.966090,1585.362574Z" transform="matrix(1 0 0 0.99659006108711 -90.96608951999588 44.29999999999836)" fill="rgb(108,168,67)" stroke="none" stroke-width="1"/><g id="ep4g8dt5zmds276"><g id="ep4g8dt5zmds277"><path id="ep4g8dt5zmds278" d="M3048.700000,1328.500000C3048.700000,1269.200000,3031.900000,1200.600000,2997.600000,1200.600000C2963.400000,1200.600000,2946.500000,1269.200000,2946.500000,1328.500000C2946.500000,1350.200000,2963.300000,1367.900000,2997.600000,1367.900000C3031.900000,1367.800000,3048.700000,1350.200000,3048.700000,1328.500000Z" fill="rgb(169,195,61)" stroke="none" stroke-width="1"/></g><g id="ep4g8dt5zmds279"><path id="ep4g8dt5zmds280" d="M3048.700000,1328.500000C3048.700000,1269.200000,3031.900000,1200.600000,2997.600000,1200.600000L2997.600000,1367.900000C3031.900000,1367.800000,3048.700000,1350.200000,3048.700000,1328.500000Z" fill="rgb(160,186,60)" stroke="none" stroke-width="1"/></g><g id="ep4g8dt5zmds281"><g id="ep4g8dt5zmds282"><path id="ep4g8dt5zmds283" d="M2997.600000,1429.600000C2995,1429.600000,2992.900000,1427.500000,2992.900000,1424.900000L2992.900000,1278.500000C2992.900000,1275.900000,2995,1273.800000,2997.600000,1273.800000C3000.200000,1273.800000,3002.300000,1275.900000,3002.300000,1278.500000L3002.300000,1424.900000C3002.400000,1427.400000,3000.200000,1429.600000,2997.600000,1429.600000L2997.600000,1429.600000Z" fill="rgb(49,49,49)" stroke="none" stroke-width="1"/></g><g id="ep4g8dt5zmds284"><path id="ep4g8dt5zmds285" d="M2997.600000,1336.600000C2996.400000,1336.600000,2995.200000,1336.100000,2994.300000,1335.200000L2972.500000,1313.400000C2970.600000,1311.600000,2970.600000,1308.600000,2972.500000,1306.700000C2974.400000,1304.900000,2977.300000,1304.900000,2979.200000,1306.700000L3001,1328.500000C3002.900000,1330.300000,3002.900000,1333.300000,3001,1335.200000C3000.100000,1336.100000,2998.900000,1336.600000,2997.600000,1336.600000L2997.600000,1336.600000Z" fill="rgb(49,49,49)" stroke="none" stroke-width="1"/></g><g id="ep4g8dt5zmds286"><path id="ep4g8dt5zmds287" d="M2997.600000,1317.600000C2996.400000,1317.600000,2995.200000,1317.100000,2994.300000,1316.200000C2992.400000,1314.400000,2992.400000,1311.400000,2994.300000,1309.500000L3023.200000,1280.600000C3025.100000,1278.800000,3028,1278.800000,3029.900000,1280.600000C3031.800000,1282.400000,3031.800000,1285.400000,3029.900000,1287.300000L3001,1316.200000C3000.100000,1317.100000,2998.900000,1317.600000,2997.600000,1317.600000L2997.600000,1317.600000Z" fill="rgb(49,49,49)" stroke="none" stroke-width="1"/></g></g></g></g></svg>