<?xml version="1.0" encoding="UTF-8"?> <svg xmlns="http://www.w3.org/2000/svg" id="Layer_1" data-name="Layer 1" viewBox="0 0 553.70801 111.362"><defs><style>.cls-1{fill:#00a383;}.cls-2{fill:#fff;}.cls-3{fill:#384745;}</style></defs><rect class="cls-1" width="135.97886" height="111.362" rx="14.39243"></rect><path class="cls-2" d="M126.31364,57.02616a3.461,3.461,0,0,0,.177-.56978c.01162-.05058.02119-.10126.03008-.15261a3.49983,3.49983,0,0,0,0-1.24585c-.00889-.05135-.01846-.102-.03008-.15261a3.46117,3.46117,0,0,0-.177-.56977c-.01094-.02726-.02666-.052-.03828-.07887a3.5653,3.5653,0,0,0-.16064-.32582l-13.83726-23.966a3.42258,3.42258,0,0,0-.20132-.30044c-.01743-.02443-.03178-.05075-.0499-.07485a3.50192,3.50192,0,0,0-.40332-.43613c-.039-.03623-.0793-.07058-.12031-.10519a3.50867,3.50867,0,0,0-.50415-.3629l-.002-.00154-.002-.00085a3.50336,3.50336,0,0,0-.56533-.255c-.0523-.0188-.10391-.03709-.15654-.05332a3.47553,3.47553,0,0,0-.57183-.12963c-.0393-.00512-.07827-.004-.11723-.00777-.11177-.01086-.22354-.02239-.337-.02239H81.57327a3.47485,3.47485,0,0,0-.35513.02358c-.03213.00325-.06425.00222-.09638.00633a3.48506,3.48506,0,0,0-.57764.1309c-.05127.0159-.10151.03367-.15244.052a3.48593,3.48593,0,0,0-.56635.25524l-.002.00085-.00206.00154a3.508,3.508,0,0,0-.50414.3629c-.041.03461-.08135.069-.12032.10519a3.50108,3.50108,0,0,0-.40331.43613c-.01812.0241-.03248.05042-.04991.07485a3.42026,3.42026,0,0,0-.20131.30044L65.716,52.18086H55.49426l9.79518-16.96605h4.54725a3.5,3.5,0,0,0,0-7h-6.568a3.5006,3.5006,0,0,0-3.031,1.75l-12.82623,22.216h-10.221L46.9856,35.21481h4.54656a3.5,3.5,0,1,0,0-7H44.9649a3.5006,3.5006,0,0,0-3.031,1.75l-12.82623,22.216H18.88589l9.79518-16.96605h4.54725a3.5,3.5,0,1,0,0-7H26.66037a3.50061,3.50061,0,0,0-3.031,1.75L9.79276,53.93085a3.39228,3.39228,0,0,0-.16031.32582c-.012.02692-.02768.05161-.039.07887a3.45988,3.45988,0,0,0-.17671.56977c-.01162.05059-.02085.10126-.03008.15261a3.48419,3.48419,0,0,0,0,1.24585c.00923.05135.01846.102.03008.15261a3.45969,3.45969,0,0,0,.17671.56978c.01128.02725.027.052.039.07886a3.39,3.39,0,0,0,.16031.32582l13.83657,23.966a3.50062,3.50062,0,0,0,3.031,1.75h6.56795a3.5,3.5,0,0,0,0-7H28.68107l-9.79518-16.966H29.10763l12.82623,22.216a3.50061,3.50061,0,0,0,3.031,1.75h6.56726a3.5,3.5,0,1,0,0-7H46.9856l-9.79518-16.966h10.221l12.82623,22.216a3.50061,3.50061,0,0,0,3.031,1.75h6.568a3.5,3.5,0,0,0,0-7H65.28944l-9.79518-16.966H65.716l12.82623,22.216a3.47465,3.47465,0,0,0,.201.3001c.01777.02461.03179.051.05025.07519a3.51361,3.51361,0,0,0,.40331.436c.03931.03632.07964.07067.12066.10536a3.4848,3.4848,0,0,0,.5038.36281l.00206.00154c.01709.00991.03554.01632.05263.026a3.49874,3.49874,0,0,0,.35752.176,3.45528,3.45528,0,0,0,.34932.11929c.02734.008.053.01965.08032.02709a3.481,3.481,0,0,0,.90678.12125l.0106-.00068h27.65879l.01059.00068a3.48113,3.48113,0,0,0,.90679-.12125c.02734-.00744.053-.01906.08032-.02709a3.45511,3.45511,0,0,0,.34931-.11929,3.49874,3.49874,0,0,0,.35752-.176c.01709-.00966.03555-.01607.05264-.026l.002-.00154a3.49692,3.49692,0,0,0,.50244-.3617c.042-.03529.0834-.07033.123-.10741a3.47062,3.47062,0,0,0,.40161-.43408c.01948-.02547.03418-.05315.053-.079a3.52924,3.52924,0,0,0,.19893-.29728l13.83726-23.966a3.56275,3.56275,0,0,0,.16064-.32582C126.287,57.07811,126.3027,57.05341,126.31364,57.02616ZM109.24676,72.64665l-4.041-7.00024,3.73309-6.46557h8.08278Zm-35.448-13.46581h8.08347l3.7331,6.4654L81.57327,72.647Zm7.77449-20.46622,4.04208,7.00023-3.7331,6.466H73.79878ZM91.67743,62.14625l-3.73309-6.4654,3.73309-6.46609h7.46619l3.73309,6.46609-3.73309,6.4654Zm7.46619-19.93147H91.67743l-4.04173-7h15.549ZM91.67743,69.14623h7.46619l4.041,7.00066H87.63536ZM108.9388,52.18086l-3.73309-6.46618,4.04071-6.99972,7.77516,13.4659Z"></path><path class="cls-3" d="M165.97889,30.98184H178.2582V49.73111h15.07266V30.98184h12.2793V80.61368h-12.2793V59.58448H178.2582v21.0292H165.97889Z"></path><path class="cls-3" d="M226.86317,30.98184h12.42651l16.76376,49.63184H243.62812l-3.089-9.41174H223.9214l-3.01477,9.41174H210.17122Zm0,31.10278h10.66121l-3.3822-10.441a48.54607,48.54607,0,0,1-1.69109-8.52968h-.29442a62.93093,62.93093,0,0,1-1.8383,8.45548Z"></path><path class="cls-3" d="M260.61449,30.98184h20.44037c9.70615,0,16.25033,4.70587,16.25033,13.82319A13.88871,13.88871,0,0,1,287.30462,58.2608a14.72884,14.72884,0,0,1,3.45639,4.70587c2.05852,4.19124,3.4564,8.82291,7.79365,8.82291a5.72137,5.72137,0,0,0,1.98551-.36743l-.955,8.7499a24.06178,24.06178,0,0,1-4.92728.66184c-5.88234,0-9.26453-2.27873-12.71973-10.14658-1.47089-3.5294-3.5294-9.70615-6.251-9.70615h-2.79336V80.61368h-12.2793Zm12.2793,8.89711v12.2051h4.41145c3.52941,0,7.64644-1.10227,7.64644-6.397,0-4.33844-2.79336-5.80813-6.17555-5.80813Z"></path><path class="cls-3" d="M299.66051,30.98184h12.71973l9.33873,28.0138a48.42845,48.42845,0,0,1,1.6169,8.97131h.29442a50.019,50.019,0,0,1,1.69109-8.8971l9.19153-28.088h11.10283L328.63057,80.61368H316.71869Z"></path><path class="cls-3" d="M350.10259,30.98184h32.86688v9.11732H362.38189V50.76037h17.27959v9.11852H362.38189V71.49636h21.32362v9.11732H350.10259Z"></path><path class="cls-3" d="M398.33894,64.29034c-.88324,3.971.66184,8.52969,8.45549,8.52969,5.14749,0,6.91159-2.05971,6.91159-4.78007,0-4.117-4.117-5.1463-8.97011-6.9116-7.28021-2.50014-16.25033-6.02954-16.25033-16.39633,0-9.26573,7.133-14.92666,19.2651-14.63344,14.85245.29442,19.04369,9.04432,17.4256,16.61775l-11.25,1.02926c.736-5.73513-1.32248-8.97011-7.13181-8.97011-3.89683,0-6.10255,1.47088-6.10255,4.55866,0,4.11823,3.96983,5.36771,8.8229,7.0588,7.50043,2.50014,16.39754,5.51492,16.39754,15.80871,0,8.8971-6.61838,15.29407-19.55952,15.29407-12.13209,0-20.44037-5.58792-18.74927-16.17613Z"></path><path class="cls-3" d="M428.92709,30.98184h39.63246v9.11732H454.73636V80.61368h-12.2793V40.09916h-13.53Z"></path><path class="cls-3" d="M473.78125,30.98184h32.86688v9.11732H486.06055V50.76037h17.27959v9.11852H486.06055V71.49636h21.32362v9.11732H473.78125Z"></path><path class="cls-3" d="M513.78233,30.98184H534.2227c9.70615,0,16.25033,4.70587,16.25033,13.82319a13.88913,13.88913,0,0,1-9.99938,13.45577,14.74329,14.74329,0,0,1,3.4552,4.70587c2.05852,4.19124,3.4564,8.82291,7.79365,8.82291a5.72137,5.72137,0,0,0,1.98551-.36743l-.955,8.7499a24.06178,24.06178,0,0,1-4.92728.66184c-5.88234,0-9.26453-2.27873-12.71973-10.14658-1.47089-3.5294-3.5294-9.70615-6.251-9.70615h-2.79336V80.61368h-12.2793Zm12.2793,8.89711v12.2051h4.41145c3.52941,0,7.64764-1.10227,7.64764-6.397,0-4.33844-2.79456-5.80813-6.17675-5.80813Z"></path></svg> 